<svg preserveAspectRatio="xMidYMid meet" data-bbox="0 0 26 28" viewBox="0 0 26 28" height="28" width="26" xmlns="http://www.w3.org/2000/svg" data-type="color" role="presentation" aria-hidden="true" aria-label=""><defs><style>#comp-lxafv24g svg [data-color="1"] {fill: #DCD9FF;}</style></defs>
    <g>
        <path d="M1.6 22.2 9.9 15l.6-.5-.8-.3-9-3.7 2-4.4 8.1 5.5.7.5v-.9L12.2.4l4.9.6-2.6 10.5-.2.8.8-.2 9.4-2.7.8 4.4-9.9.9h-.9l.5.8 6.8 9L18 27l-5.6-10.2-.3-.6-.5.6-7.2 8.4-3-3.2h.2Z" fill="#ffffff" data-color="1"/>
        <path fill="#000000" d="m17.9 28-5.7-10.6-7.6 8.9-3.7-4 8.6-7.6L0 10.8l2.5-5.4 8.6 5.9.7-11.3 5.9.8L15 11.9 25 9l1 5.6-10.5.9 7.1 9.4-4.7 3.1z" data-color="2"/>
        <path fill="#ffffff" d="m12.4 15.6 5.9 10.9 2.9-1.9-7.6-10 11.2-1.1-.6-3.4-10.6 3.1 2.9-11.7-3.7-.5-.7 12-9.2-6.2-1.6 3.4 10.1 4.1-9.1 8 2.3 2.4 7.8-9.1z" data-color="1"/>
    </g>
</svg>