<svg preserveAspectRatio="xMidYMid meet" data-bbox="0.3 0.4 34.2 36.1" viewBox="0.3 0.4 34.2 36.1" xmlns="http://www.w3.org/2000/svg" data-type="color" role="presentation" aria-hidden="true" aria-label=""><defs><style>#comp-lxaiirvc svg [data-color="1"] {fill: #000000;}
#comp-lxaiirvc svg [data-color="2"] {fill: #000000;}</style></defs>
    <g>
        <path d="M20.5 16.6c-2-2.9-1.8-10.1-2.8-15.6h-.3c.9 4.5 1.3 10.9-2.2 14-4.7 4.2-6.9 1.7-14.2 3.9 0 .1 0 .2.1.3 4.6-1 11.3-1.5 13.4 3.5 2.2 4.7.9 6.2 2.1 13.2h.3c-.7-4.7-.8-9.8 3-12.9 2.2-2.1 7.1-1.2 14-3.5v-.3c-4.3 1.4-10.1 2.6-13.4-2.7Z" fill="#ffffff" data-color="1"/>
        <path d="M16.2 36.5V36c-.5-2.8-.6-4.7-.7-6.3 0-2.4-.2-4-1.4-6.8-2-4.6-8.1-4.3-12.9-3.2H.7c0 .1-.1-.3-.1-.3 0-.1 0-.2-.1-.3l-.2-.5.5-.2c3-.9 5.2-1 7-1.1 2.7-.1 4.4-.2 7.1-2.6 3.5-3.1 2.7-9.8 2-13.5V.7l1.2-.3v.5c.5 2 .7 4.2.9 6.3.3 3.5.7 6.8 1.7 8.7l.3.4c3.1 4.8 8.2 4 12.8 2.5l.6-.2v.7c.1 0 .1.1.1.2v.4l-.3.1c-3.2 1.1-6 1.4-8.3 1.8-2.6.4-4.4.6-5.5 1.6-3.7 3-3.5 8-2.9 12.5v.6h-1.3ZM9 18.3c2.6.4 4.9 1.7 6 4.3 1 2.3 1.3 3.8 1.4 5.5.5-2 1.4-3.9 3.2-5.4 1.3-1.2 3.3-1.5 6-1.9h.2c-2.1-.4-4.1-1.4-5.7-3.8v-.2c-1.2-1.5-1.6-4.1-2-6.9-.4 2.1-1.2 4.1-2.7 5.5-2.5 2.3-4.4 2.7-6.6 2.8Z" fill="#000000" data-color="2"/>
    </g>
</svg>