<svg preserveAspectRatio="xMidYMid meet" data-bbox="20 64.639 159.999 70.723" viewBox="20 64.639 159.999 70.723" height="200" width="200" xmlns="http://www.w3.org/2000/svg" data-type="color" role="presentation" aria-hidden="true" aria-label="" class="">
    <g>
        <path fill="#010203" d="M179.789 121.774c0 5.206-35.751 9.427-79.852 9.427-44.101 0-79.852-4.22-79.852-9.427 0-5.206 35.751-9.427 79.852-9.427 44.101 0 79.852 4.22 79.852 9.427z" data-color="1"/>
        <path fill="#010203" d="M100.006 135.362c-44.416 0-73.734-6.064-76.975-7.99-3.07-1.824-3.047-3.682-3.028-5.176.002-.146.004-.288.002-.427l.571-.006c.001.144 0 .29-.002.44-.018 1.417-.038 3.022 2.748 4.678 3.209 1.907 32.376 7.91 76.683 7.91 47.386 0 71.555-5.248 76.239-8.776 2.741-2.371 3.193-4.284 3.197-4.302l.558.121c-.018.085-.48 2.102-3.397 4.625-5.882 4.43-34.071 8.903-76.598 8.903Z" data-color="1"/>
        <path fill="#004fba" d="M113.697 111.494c-.175.761-.609 1.652-1.211 2.589-2.52 3.959-7.911 8.916-8.673 9.541-2.498 2.071-4.15 4.5-5.193 7.158h-.35c-9.274 0-18.138-.206-26.27-.586a29.533 29.533 0 0 1-3.411-13.797c0-.579.023-1.15.053-1.721.838-14.559 12.183-26.293 26.567-27.739-1.66.183-3.282.495-4.85.921.457-.038.906-.069 1.355-.061 4.15.076 8.376.99 12 3.076 1.713.982 3.381 2.201 4.751 3.624 7.98 9.472 5.231 16.988 5.231 16.988v.008Z" data-color="2"/>
        <path fill="#010203" d="M98.75 130.972h-.48c-9.129 0-17.971-.197-26.279-.586l-.109-.005-.051-.097a29.908 29.908 0 0 1-3.434-13.886c0-.641.029-1.262.054-1.731a29.788 29.788 0 0 1 8.256-18.908 29.8 29.8 0 0 1 18.482-9.01l.04.378c-1.025.113-2.05.277-3.067.492 4.359.143 8.377 1.208 11.646 3.09 1.886 1.082 3.499 2.312 4.793 3.657 4.163 4.94 5.375 9.338 5.661 12.159.297 2.928-.299 4.77-.38 5.004v.008c-.174.75-.59 1.641-1.237 2.649-2.562 4.025-8.064 9.053-8.713 9.585-2.352 1.95-4.032 4.267-5.136 7.08l-.048.12Zm-26.632-.962c8.27.385 17.068.581 26.152.581h.221c1.115-2.783 2.864-5.175 5.201-7.113.644-.529 6.097-5.511 8.634-9.497.618-.962 1.015-1.805 1.181-2.509l.012-.051c.027-.074 2.61-7.532-5.198-16.8-1.261-1.31-2.846-2.518-4.7-3.582-3.325-1.914-7.443-2.969-11.909-3.051a13.01 13.01 0 0 0-1.336.06l-.002-.013a29.454 29.454 0 0 0-13.389 7.986 29.406 29.406 0 0 0-8.151 18.665 32.146 32.146 0 0 0-.053 1.71 29.52 29.52 0 0 0 3.339 13.612Z" data-color="1"/>
        <path fill="#0078cf" d="M127.837 116.482c0 2.703-.365 5.315-1.051 7.805a28.849 28.849 0 0 1-2.368 6c-7.995.373-16.691.579-25.798.586a17.362 17.362 0 0 1 5.193-7.158c.761-.624 6.145-5.581 8.673-9.541.602-.944 1.043-1.827 1.211-2.589 0 0 2.756-7.508-5.231-16.988-1.371-1.432-3.031-2.642-4.751-3.624-3.632-2.086-7.85-3-12-3.076-.449-.008-.899.015-1.355.061a31.221 31.221 0 0 1 5.566-.99c.145-.008.282-.023.426-.03a35.54 35.54 0 0 1 1.866-.06c15.335 0 27.952 11.658 29.468 26.59a33.264 33.264 0 0 1 .152 3.022v-.008Z" data-color="3"/>
        <path fill="#010203" d="m98.341 131.063.102-.26a17.657 17.657 0 0 1 5.249-7.234c.641-.525 6.076-5.49 8.634-9.496.647-1.015 1.034-1.842 1.185-2.527.034-.099 2.625-7.549-5.191-16.824-1.257-1.313-2.841-2.521-4.7-3.582-3.332-1.914-7.45-2.97-11.909-3.051-.424-.009-.86.013-1.333.06l-.069-.373a31.458 31.458 0 0 1 5.6-.996c.077-.004.145-.01.213-.015.073-.006.145-.012.219-.015.195-.015.396-.023.596-.031.421-.015.85-.03 1.279-.03 15.359 0 28.109 11.505 29.658 26.76a33.326 33.326 0 0 1 .154 3.035v.008a29.59 29.59 0 0 1-1.057 7.847 29.094 29.094 0 0 1-2.384 6.039l-.051.096-.109.005c-8.191.381-16.873.579-25.806.586h-.279Zm-6.179-43.345c4.352.143 8.371 1.208 11.647 3.09 1.889 1.079 3.503 2.309 4.794 3.658 4.166 4.943 5.378 9.341 5.662 12.161.311 3.07-.361 4.945-.39 5.023-.153.705-.557 1.572-1.228 2.626-2.584 4.047-8.067 9.056-8.713 9.585a17.27 17.27 0 0 0-5.031 6.82 566.826 566.826 0 0 0 25.398-.581 28.768 28.768 0 0 0 2.302-5.865 29.244 29.244 0 0 0 1.044-7.751c0-.622-.027-1.215-.054-1.714a23.763 23.763 0 0 0-.098-1.284c-1.528-15.062-14.116-26.419-29.278-26.419a35.092 35.092 0 0 0-1.85.06c-.075.004-.144.01-.213.015-.072.006-.144.012-.218.015a30.375 30.375 0 0 0-3.772.56Z" data-color="1"/>
        <path fill="#bfc4ff" d="m57.784 91.72-.464-2.483-5.3 1.394 1.317-5.544-2.756-.373-.358 5.863v-.099l-4.675-3.015-1.234 2.498 5.155 1.956-4.668 3.99 1.805 1.767 4.059-4.553 3.106 5.497 2.102-1.401-3.792-5.003 5.703-.494z" data-color="4"/>
        <path fill="#010203" d="m53.706 98.89-3.076-5.445-4.014 4.504-2.096-2.052 4.582-3.917-5.051-1.917 1.421-2.877 4.587 2.958.345-5.648 3.168.429-1.292 5.439L57.47 89l.541 2.89-5.569.483 3.706 4.889-2.441 1.627ZM50.7 92.795l3.136 5.551 1.763-1.175-3.878-5.117 5.837-.506-.388-2.075-5.409 1.422 1.342-5.647-2.345-.318-.345 5.659-.256-.008-.037.057-4.496-2.9-1.046 2.118 5.259 1.997-4.753 4.064 1.514 1.481 4.103-4.603Z" data-color="1"/>
        <path fill="#f6605b" d="M140.248 65.054c.228.358 2.086 7.439-1.317 9.693-3.411 2.254-4.409-.129-11.094 1.881 0 0 8.764-2.223 10.34 2.018 1.272 3.122-.228 3.465 1.013 10.036-.099-2.863-1.333-7.515 2.094-9.587 1.607-1.119 5.17.053 10.546-1.637-2.086.213-7.614 2.292-9.922-1.683-1.363-2.155-.046-8.033-1.652-10.736l-.008.015Z" data-color="5"/>
        <path fill="#010203" d="M139.003 88.717c-.639-3.381-.555-5.151-.494-6.442.059-1.247.097-2.07-.508-3.557-1.501-4.038-10.031-1.926-10.117-1.905l-.102-.367c3.335-1.003 5.249-.922 6.785-.859 1.501.062 2.585.107 4.259-.998 3.276-2.169 1.476-9.058 1.261-9.434l-.05-.087.202-.429.18.303c.862 1.45.906 3.722.95 5.92.038 1.966.074 3.823.7 4.812 1.832 3.155 5.736 2.366 8.319 1.844.559-.113 1.042-.21 1.422-.249l1.86-.19-1.784.561c-2.952.928-5.405 1.002-7.197 1.056-1.516.045-2.612.078-3.297.556-2.721 1.645-2.4 5.017-2.142 7.727.057.606.112 1.179.13 1.697l-.378.042Zm-4.666-12.759c1.789.252 3.405.971 4.018 2.622.635 1.559.593 2.462.533 3.713.282-1.334.935-2.537 2.297-3.36.767-.536 1.91-.57 3.493-.618.25-.007.509-.015.776-.025-1.457-.217-2.817-.88-3.711-2.419-.611-.965-.702-2.608-.744-4.4-.235 1.348-.791 2.659-1.965 3.435-1.776 1.174-2.914 1.127-4.484 1.061l-.214-.009Z" data-color="1"/>
    </g>
</svg>