<svg preserveAspectRatio="xMidYMid meet" data-bbox="0 0 25.119 25.1" viewBox="0 0 25.119 25.1" xmlns="http://www.w3.org/2000/svg" data-type="color" role="presentation" aria-hidden="true" aria-label="">
    <g>
        <path d="M22.2 10.2h-6.8c-.3 0-.6-.4-.6-.7V2.9c0-1.2-.9-2.4-2.1-2.5-1.4-.1-2.5 1-2.5 2.3v6.7c0 .4-.3.6-.6.7H2.9c-1.2 0-2.4.9-2.5 2.1-.1 1.4 1 2.5 2.3 2.5h6.8c.3 0 .6.4.6.8V22c0 1.2.9 2.4 2.1 2.5 1.4.1 2.5-1 2.5-2.3v-6.7c0-.4.3-.7.6-.8h6.6c1.2 0 2.4-.9 2.5-2.1.1-1.4-1-2.5-2.3-2.5Z" fill="#ffffff" data-color="1"/>
        <path d="M12.5 25h-.3c-1.4-.1-2.6-1.4-2.6-3v-6.5c0-.1 0-.2-.2-.3H2.8c-.8 0-1.5-.3-2.1-.9-.5-.5-.7-1.3-.7-2.1.1-1.4 1.4-2.6 3-2.6h6.6s.2-.1.2-.2V2.8c0-.8.3-1.5.9-2.1.5-.5 1.3-.7 2.1-.7 1.4.1 2.6 1.4 2.6 3v6.5c0 .1 0 .2.2.2h6.7c.8 0 1.5.3 2.1.9.5.6.8 1.4.7 2.1-.1 1.4-1.4 2.6-3 2.6h-6.6c-.1 0-.2.1-.2.3v6.7c0 .8-.3 1.5-.9 2.1-.5.5-1.2.7-1.9.7ZM2.9 10.7c-1 0-1.9.7-2 1.7 0 .5.1 1 .5 1.4.3.4.8.6 1.3.6h6.9c.6.1 1 .7 1 1.3v6.5c0 1 .7 1.9 1.7 2 .5 0 1-.1 1.4-.5.4-.3.6-.8.6-1.3v-6.7c0-.6.4-1.1 1-1.2H22c1 0 1.9-.7 2-1.7 0-.5-.1-1-.5-1.4-.3-.4-.8-.6-1.3-.6h-7c-.5-.2-.9-.7-.9-1.2V2.9c0-1-.7-1.9-1.7-2-.5 0-1 .1-1.4.5-.4.3-.6.8-.6 1.3v6.7c0 .6-.4 1.1-.9 1.2H2.9Z" fill="#000000" data-color="2"/>
    </g>
</svg>